<mxfile host="app.diagrams.net" modified="2022-09-15T01:34:37.844Z" agent="5.0 (Macintosh; Intel Mac OS X 10_15_7) AppleWebKit/537.36 (KHTML, like Gecko) Chrome/104.0.0.0 Safari/537.36" etag="fZ-TDLWxma2Wh5uX7AVP" version="20.3.0" type="github">
  <diagram id="inDIjk0RjdbKVFxLzT4N" name="第 1 页">
    <mxGraphModel dx="848" dy="589" grid="1" gridSize="10" guides="1" tooltips="1" connect="1" arrows="1" fold="1" page="1" pageScale="1" pageWidth="827" pageHeight="1169" math="0" shadow="0">
      <root>
        <mxCell id="0" />
        <mxCell id="1" parent="0" />
        <mxCell id="aZIcsHicZBFDwDII4v8H-5" value="" style="rounded=0;whiteSpace=wrap;html=1;" parent="1" vertex="1">
          <mxGeometry x="90" y="140" width="570" height="300" as="geometry" />
        </mxCell>
        <mxCell id="aZIcsHicZBFDwDII4v8H-1" value="" style="ellipse;whiteSpace=wrap;html=1;" parent="1" vertex="1">
          <mxGeometry x="170" y="190" width="120" height="80" as="geometry" />
        </mxCell>
        <mxCell id="aZIcsHicZBFDwDII4v8H-2" value="" style="ellipse;whiteSpace=wrap;html=1;" parent="1" vertex="1">
          <mxGeometry x="170" y="320" width="120" height="80" as="geometry" />
        </mxCell>
        <mxCell id="aZIcsHicZBFDwDII4v8H-3" value="" style="ellipse;whiteSpace=wrap;html=1;" parent="1" vertex="1">
          <mxGeometry x="460" y="190" width="120" height="80" as="geometry" />
        </mxCell>
        <mxCell id="aZIcsHicZBFDwDII4v8H-4" value="" style="ellipse;whiteSpace=wrap;html=1;" parent="1" vertex="1">
          <mxGeometry x="460" y="310" width="120" height="80" as="geometry" />
        </mxCell>
      </root>
    </mxGraphModel>
  </diagram>
</mxfile>
